<svg width="512" height="512" xmlns="http://www.w3.org/2000/svg" version="1.0" preserveAspectRatio="xMidYMid meet">
 <g>
  <title>Layer 1</title>
  <g transform="translate(0 512) scale(0.1 -0.1)" fill="#000000" id="svg_1">
   <path fill="#fcd34d" d="m815,4938c-42,-24 -44,-35 -45,-246c0,-202 0,-203 25,-227c27,-27 79,-33 106,-12c35,27 39,54 39,247l0,192l-29,29c-31,30 -63,36 -96,17z" id="svg_2"/>
   <path fill="#fcd34d" d="m1649,4921l-29,-29l0,-192c0,-193 4,-220 39,-247c27,-21 79,-15 106,12c25,24 25,25 25,227c-1,212 -3,223 -47,246c-35,19 -63,14 -94,-17z" id="svg_3"/>
   <path fill="#fcd34d" d="m2505,4926c-33,-33 -37,-68 -33,-266l3,-172l28,-24c16,-13 41,-24 57,-24c16,0 41,11 57,24l28,24l3,172c2,95 1,188 -3,207c-9,47 -46,83 -85,83c-19,0 -40,-9 -55,-24z" id="svg_4"/>
   <path fill="#fcd34d" d="m3375,4938c-42,-24 -44,-35 -45,-246c0,-202 0,-203 25,-227c27,-27 79,-33 106,-12c35,27 39,54 39,247l0,192l-29,29c-31,30 -63,36 -96,17z" id="svg_5"/>
   <path fill="#fcd34d" d="m4209,4921l-29,-29l0,-192c0,-193 4,-220 39,-247c27,-21 79,-15 106,12c25,24 25,25 25,227c-1,212 -3,223 -47,246c-35,19 -63,14 -94,-17z" id="svg_6"/>
   <path fill="#fcd34d" d="m342,4591c-60,-21 -114,-67 -145,-126c-19,-35 -22,-59 -25,-202l-4,-163l2392,0l2392,0l-4,163c-4,184 -13,213 -87,280c-54,48 -121,67 -243,67l-98,0l0,-72c-1,-160 -103,-268 -256,-268c-150,0 -254,115 -254,282l0,58l-170,0l-170,0l0,-56c0,-169 -103,-284 -254,-284c-153,0 -255,108 -256,268l0,72l-169,0l-168,0l-6,-72c-7,-98 -30,-149 -87,-201c-101,-91 -239,-91 -340,0c-57,52 -80,103 -87,201l-6,72l-168,0l-169,0l0,-72c0,-160 -103,-267 -256,-268c-150,0 -254,115 -254,282l0,58l-170,0l-170,0l0,-56c0,-169 -103,-284 -254,-284c-153,1 -256,108 -256,268l0,72l-102,0c-73,-1 -118,-6 -156,-19z" id="svg_7"/>
   <path fill="#fcd34d" d="m177,3923c-4,-3 -7,-646 -7,-1428c0,-1575 -4,-1471 66,-1553c19,-22 55,-51 82,-64c44,-22 58,-23 236,-23l190,0l15,50c45,153 196,600 245,725c32,80 93,217 136,305c135,276 238,409 340,439c71,21 131,20 224,-4c525,-134 1278,-950 1279,-1385c0,-44 -5,-92 -11,-107l-12,-28l189,0l188,0l-5,68c-6,84 21,154 79,207c52,47 100,65 173,65c156,0 269,-126 252,-282l-6,-59l463,3c461,3 462,3 509,26c27,13 64,42 83,64c70,82 65,-21 63,1558l-3,1425l-2381,3c-1309,1 -2384,-1 -2387,-5zm2105,-283c9,-12 20,-49 24,-88c10,-98 34,-159 107,-269c67,-101 104,-180 128,-274c20,-76 17,-285 -4,-373c-25,-101 -66,-198 -93,-223c-52,-48 -136,-11 -136,58c0,20 7,50 16,67c38,74 60,184 60,302c0,101 -4,124 -28,190c-16,41 -60,122 -98,180c-82,124 -118,225 -121,337c-2,71 -1,76 27,100c24,20 36,24 65,19c20,-3 44,-15 53,-26zm723,-79c168,-76 201,-307 62,-427c-85,-72 -200,-80 -299,-21c-74,45 -111,108 -116,197c-2,38 1,84 7,103c16,48 82,120 133,146c56,27 156,28 213,2zm1214,-206c36,-18 55,-62 42,-97c-5,-14 -44,-51 -85,-83c-102,-77 -155,-146 -231,-303c-81,-166 -129,-237 -224,-333c-121,-120 -250,-198 -429,-258c-95,-32 -238,-61 -297,-61c-65,0 -105,58 -79,118c16,38 34,48 109,56c174,20 375,100 504,201c112,88 172,169 256,340c103,212 177,305 317,395c68,44 77,46 117,25zm-2267,-295c57,-16 119,-69 150,-129c93,-177 -49,-389 -247,-368c-155,16 -265,168 -226,312c38,143 181,224 323,185zm2254,-868c189,-96 191,-357 5,-454c-177,-93 -389,49 -368,247c11,106 81,192 187,226c40,13 133,3 176,-19zm-683,-519c49,-15 107,-44 160,-79c111,-76 165,-102 255,-125c129,-33 268,-19 421,42c45,18 82,27 95,23c38,-11 66,-45 66,-79c0,-52 -31,-80 -126,-114c-286,-104 -548,-71 -782,96c-77,55 -144,82 -232,94c-100,14 -108,17 -125,50c-22,42 -11,85 28,110c27,16 43,18 97,13c36,-3 100,-17 143,-31z" id="svg_8"/>
   <path fill="#fcd34d" d="m2846,3389c-19,-15 -26,-30 -26,-55c0,-47 13,-69 50,-84c40,-16 85,1 106,42c41,79 -58,153 -130,97z" id="svg_9"/>
   <path fill="#fcd34d" d="m1819,2871c-17,-18 -29,-40 -29,-56c0,-32 49,-85 80,-85c29,0 76,26 84,45c13,35 6,76 -19,100c-34,35 -78,33 -116,-4z" id="svg_10"/>
   <path fill="#fcd34d" d="m4039,2021c-32,-33 -36,-58 -14,-100c37,-73 155,-43 155,39c0,40 -47,90 -85,90c-16,0 -38,-12 -56,-29z" id="svg_11"/>
   <path fill="#fcd34d" d="m1511,2201c-29,-29 -34,-72 -16,-146c47,-202 230,-472 497,-730c272,-264 560,-435 731,-435c83,0 108,42 87,145c-71,341 -550,882 -977,1103c-148,76 -282,103 -322,63z" id="svg_12"/>
   <path fill="#fcd34d" d="m1277,1832c-31,-66 -65,-142 -76,-170l-20,-51l62,-103c123,-202 330,-476 556,-733c157,-179 228,-255 241,-255c22,0 250,94 380,157l135,66l-40,15c-400,155 -911,644 -1116,1067c-27,55 -49,106 -49,113c0,33 -22,2 -73,-106z" id="svg_13"/>
   <path fill="#fcd34d" d="m1097,1393c-2,-4 -35,-100 -72,-211c-60,-183 -66,-207 -54,-228c34,-64 315,-421 458,-583l39,-43l191,61c105,34 191,64 191,67c0,3 -42,51 -94,107c-185,200 -414,489 -571,722c-77,115 -81,120 -88,108z" id="svg_14"/>
   <path fill="#fcd34d" d="m3525,995c-32,-31 -32,-75 -1,-111c53,-63 155,-16 142,65c-11,70 -92,96 -141,46z" id="svg_15"/>
   <path fill="#fcd34d" d="m877,699c-74,-272 -107,-402 -107,-428c0,-20 10,-42 29,-63c25,-28 36,-33 73,-32c35,0 394,88 407,100c2,2 -41,56 -96,121c-90,108 -218,268 -268,338l-20,27l-18,-63z" id="svg_16"/>
  </g>
 </g>

</svg>