<svg width="18" height="18" viewBox="0 0 18 18" fill="none" xmlns="http://www.w3.org/2000/svg">
<path d="M8.47271 0.345606C8.62239 -0.115049 9.27409 -0.11505 9.42377 0.345605L11.1934 5.79191C11.2603 5.99792 11.4523 6.1374 11.6689 6.1374H17.3955C17.8799 6.1374 18.0812 6.75721 17.6894 7.04191L13.0565 10.4079C12.8812 10.5352 12.8079 10.7609 12.8748 10.9669L14.6445 16.4132C14.7941 16.8739 14.2669 17.257 13.875 16.9722L9.24214 13.6062C9.06689 13.4789 8.82959 13.4789 8.65435 13.6062L4.02145 16.9722C3.62959 17.257 3.10235 16.8739 3.25203 16.4132L5.02164 10.9669C5.08857 10.7609 5.01524 10.5352 4.84 10.4079L0.207098 7.04191C-0.184758 6.75721 0.0166287 6.1374 0.50099 6.1374H6.22757C6.44419 6.1374 6.63616 5.99792 6.7031 5.79191L8.47271 0.345606Z" fill="#4539B4"/>
</svg>
